<svg version="1.1" xmlns="http://www.w3.org/2000/svg" xmlns:xlink="http://www.w3.org/1999/xlink" width="22.077px" height="22.08px" viewBox="0,0,255.96251,256"><g fill="#ffffff" fill-rule="nonzero" stroke="none" stroke-width="1" stroke-linecap="butt" stroke-linejoin="miter" stroke-miterlimit="10" stroke-dasharray="" stroke-dashoffset="0" font-family="none" font-weight="none" font-size="none" text-anchor="none" style="mix-blend-mode: normal"><g transform="translate(-0.00135,0) scale(11.5942,11.5942)"><g id="Layer_2"><g id="Layer_1-2"><path d="M21.742,2.232h-2.118v-1.897c0.00027,-0.08876 -0.03481,-0.17397 -0.09747,-0.23682c-0.06267,-0.06285 -0.14777,-0.09818 -0.23653,-0.09818h-6.768c-0.5911,0.00022 -1.14481,0.28921 -1.483,0.774c-0.3394,-0.48445 -0.89349,-0.77325 -1.485,-0.774h-6.767c-0.18462,0.00055 -0.334,0.15037 -0.334,0.335v1.9h-2.119c-0.18368,0 -0.3329,0.14832 -0.334,0.332v19.178c0,0.18463 0.14938,0.33445 0.334,0.335h21.408c0.18479,-0.00055 0.33445,-0.15021 0.335,-0.335v-19.178c0,-0.18502 -0.14998,-0.335 -0.335,-0.335zM10.7,21.41h-10.032v-18.51h1.785v16.469c0,0.18446 0.14954,0.334 0.334,0.334h6.767c0.63451,0.00055 1.1489,0.51449 1.15,1.149zM11.035,16.595c-0.18502,0 -0.335,0.14998 -0.335,0.335v2.515c-0.3241,-0.26616 -0.73061,-0.41145 -1.15,-0.411h-6.428v-18.365h6.432c0.63295,0.00275 1.14491,0.51605 1.146,1.149v1.282c0.00972,0.17764 0.15659,0.3167 0.3345,0.3167c0.17791,0 0.32478,-0.13906 0.3345,-0.3167v-1.282c0.00053,-0.30526 0.1223,-0.59782 0.33853,-0.81329c0.21623,-0.21548 0.5092,-0.33624 0.81447,-0.33571h6.433v18.365h-6.433c-0.41917,-0.00097 -0.82554,0.14439 -1.149,0.411v-2.515c-0.00273,-0.18267 -0.15131,-0.32947 -0.334,-0.33zM21.408,21.41h-10.035v-0.558c-0.00053,-0.30517 0.12026,-0.59804 0.33577,-0.81411c0.21551,-0.21607 0.50806,-0.33762 0.81323,-0.33789h6.768c0.08866,0.00027 0.17377,-0.03484 0.23647,-0.09753c0.0627,-0.0627 0.0978,-0.1478 0.09753,-0.23647v-16.466h1.784zM16.949,14.7c0,-2.334 0,-7.033 0,-9.366c-0.00055,-0.67742 -0.54958,-1.22645 -1.227,-1.227h-9.366c-0.67703,0.0011 -1.22545,0.54997 -1.226,1.227c0,2.334 0,7.032 0,9.366c0.00055,0.67687 0.54913,1.22545 1.226,1.226h9.366c0.67703,-0.00055 1.2259,-0.54897 1.227,-1.226zM10.704,15.258h-4.348c-0.30694,-0.00219 -0.55491,-0.25106 -0.556,-0.558v-4.349h4.9zM10.704,9.682h-4.904v-4.348c0.00055,-0.30795 0.25005,-0.55745 0.558,-0.558h4.342zM11.374,4.776h4.348c0.30817,0 0.558,0.24983 0.558,0.558v4.348h-4.906zM11.374,10.351h4.906v4.349c-0.00055,0.30795 -0.25005,0.55745 -0.558,0.558h-4.348zM6.965,6.9h0.953c0.045,-0.494 -0.179,-1.282 0.334,-1.287c0.513,-0.005 0.288,0.787 0.334,1.287c0.5,0.045 1.282,-0.179 1.287,0.334c0.005,0.513 -0.792,0.289 -1.287,0.335c-0.045,0.495 0.178,1.281 -0.334,1.286c-0.512,0.005 -0.289,-0.791 -0.334,-1.286h-0.953c-0.17764,-0.00972 -0.3167,-0.15659 -0.3167,-0.3345c0,-0.17791 0.13906,-0.32478 0.3167,-0.3345zM15.006,7.569h-2.358c-0.17764,-0.00972 -0.3167,-0.15659 -0.3167,-0.3345c0,-0.17791 0.13906,-0.32478 0.3167,-0.3345h2.358c0.16623,0.0224 0.29027,0.16427 0.29027,0.332c0,0.16773 -0.12404,0.3096 -0.29027,0.332zM15.135,11.969l-0.835,0.831l0.835,0.836c0.13062,0.13034 0.13084,0.34188 0.0005,0.4725c-0.13034,0.13062 -0.34188,0.13084 -0.4725,0.0005l-0.836,-0.836l-0.835,0.836c-0.13181,0.12359 -0.33787,0.12039 -0.46577,-0.00724c-0.1279,-0.12763 -0.13154,-0.33369 -0.00823,-0.46576l0.836,-0.836l-0.836,-0.835c-0.12331,-0.13207 -0.11967,-0.33813 0.00823,-0.46576c0.1279,-0.12763 0.33397,-0.13083 0.46577,-0.00724l0.835,0.835l0.836,-0.835c0.13062,-0.13034 0.34216,-0.13012 0.4725,0.0005c0.13034,0.13062 0.13012,0.34216 -0.0005,0.4725zM7.072,12.469h2.359c0.17764,0.00972 0.3167,0.15659 0.3167,0.3345c0,0.17791 -0.13906,0.32478 -0.3167,0.3345h-2.359c-0.17446,-0.01351 -0.30913,-0.15902 -0.30913,-0.334c0,-0.17498 0.13467,-0.32049 0.30913,-0.334zM8.252,11.307c0.17764,0.00972 0.3167,0.15659 0.3167,0.3345c0,0.17791 -0.13906,0.32478 -0.3167,0.3345c-0.17446,-0.01351 -0.30913,-0.15902 -0.30913,-0.334c0,-0.17498 0.13467,-0.32049 0.30913,-0.334zM8.252,14.299c-0.17764,-0.00972 -0.3167,-0.15659 -0.3167,-0.3345c0,-0.17791 0.13906,-0.32478 0.3167,-0.3345c0.18502,0 0.335,0.14998 0.335,0.335c0,0.18502 -0.14998,0.335 -0.335,0.335z" id="education"></path></g></g></g></g></svg>